<svg enable-background="new 0 0 24 24" height="512" viewBox="0 0 24 24" width="512" xmlns="http://www.w3.org/2000/svg"><path d="m9.5 20h-7c-.827 0-1.5-.673-1.5-1.5v-11c0-.276.224-.5.5-.5h17c.276 0 .5.224.5.5v2.06c0 .276-.224.5-.5.5s-.5-.224-.5-.5v-1.56h-16v10.5c0 .275.224.5.5.5h7c.276 0 .5.224.5.5s-.224.5-.5.5z"/><path d="m12.5 11h-5c-.276 0-.5-.224-.5-.5s.224-.5.5-.5h5c.276 0 .5.224.5.5s-.224.5-.5.5z"/><path d="m19.5 8h-19c-.276 0-.5-.224-.5-.5v-4c0-.276.224-.5.5-.5h19c.276 0 .5.224.5.5v4c0 .276-.224.5-.5.5zm-18.5-1h18v-3h-18z"/><path d="m19.5 4c-.128 0-.256-.049-.354-.146l-2.853-2.854h-12.586l-2.853 2.854c-.195.195-.512.195-.707 0s-.195-.512 0-.707l3-3c.093-.094.22-.147.353-.147h13c.133 0 .26.053.354.146l3 3c.195.195.195.512 0 .707-.098.098-.226.147-.354.147z"/><path d="m17.5 24c-3.584 0-6.5-2.916-6.5-6.5s2.916-6.5 6.5-6.5 6.5 2.916 6.5 6.5-2.916 6.5-6.5 6.5zm0-12c-3.033 0-5.5 2.468-5.5 5.5s2.467 5.5 5.5 5.5 5.5-2.468 5.5-5.5-2.467-5.5-5.5-5.5z"/><path d="m17.5 21c-.276 0-.5-.224-.5-.5v-6c0-.276.224-.5.5-.5s.5.224.5.5v6c0 .276-.224.5-.5.5z"/><path d="m20.5 18h-6c-.276 0-.5-.224-.5-.5s.224-.5.5-.5h6c.276 0 .5.224.5.5s-.224.5-.5.5z"/></svg>